/* XPM */
static char *result[] = {
/* columns rows colors chars-per-pixel */
"26 26 53 1 ",
"  c #5D4F91",
". c #5C4E92",
"X c #5D4F93",
"o c #5F5191",
"O c #5E5092",
"+ c #605390",
"@ c #615395",
"# c #615494",
"$ c #635594",
"% c #635694",
"& c #625496",
"* c #635698",
"= c #695C99",
"- c #6F6790",
"; c #716891",
": c #736B93",
"> c #746C92",
", c #756D93",
"< c #7E749B",
"1 c #7E739C",
"2 c #7E739D",
"3 c #7066A5",
"4 c #766DA6",
"5 c #786BA2",
"6 c #796DA3",
"7 c #766DAA",
"8 c #7C73AB",
"9 c #83789F",
"0 c #84799E",
"q c #CBC7B3",
"w c #CCC7B4",
"e c #CDC9B4",
"r c #CDC8B5",
"t c #D1CDB6",
"y c #D1CEB9",
"u c #ECEABE",
"i c #EDEBBF",
"p c #EEECBE",
"a c #BBB2C9",
"s c #C0B6CD",
"d c #C2B9CC",
"f c #D7CFDA",
"g c #DCD5D4",
"h c #DDD7D4",
"j c #DED6DD",
"k c #E7E4C4",
"l c #EDEAC6",
"z c #EEEBC7",
"x c #F1F0C0",
"c c #F2F1C0",
"v c #F2F1C1",
"b c #F3F2C0",
"n c None",
/* pixels */
"nnnnnnnnnnnnnnnnnnnnnnnnnn",
"nnnnnnnnnnnnnnnnnnnnnnnnnn",
"nnnnnnnnnnnnnnnnnnnnnnnnnn",
"nnnnnnnnnnnnnnnnnnnnnnnnnn",
"nnnnnnnn,++nnnn,++nnnnnnnn",
"nnnnnnn,quu<nn,quu<nnnnnnn",
"nnnnnnn;tbb1o+ tbb1nnnnnnn",
"nnnnnnn;tbbhffflbb1nnnnnnn",
"nnnnnnn;tbbvvvvbbb1nnnnnnn",
"nnnnnnn;tbbbbbbbbb1nnnnnnn",
"nnnnnn, tbbbbbbbbb1onnnnnn",
"nnnnnnn-tbbbbbbbbb1nnnnnnn",
"nnnnnn, tbbbbbbbbb1onnnnnn",
"nnnnnnn-tbbbbbbbbb1nnnnnnn",
"nnnnnnnn>%488888=%Onnnnnnn",
"nnnnnnnn;.37*X37yg5nnnnnnn",
"nnnnnnn,aki2wu2rc9nnnnnnnn",
"nnnnnnn;sz0exbpx0nnnnnnnnn",
"nnnnnnn;@$O#%%dj6nnnnnnnnn",
"nnnnnnnnnnnnnn:&nnnnnnnnnn",
"nnnnnnnnnnnnnnnnnnnnnnnnnn",
"nnnnnnnnnnnnnnnnnnnnnnnnnn",
"nnnnnnnnnnnnnnnnnnnnnnnnnn",
"nnnnnnnnnnnnnnnnnnnnnnnnnn",
"nnnnnnnnnnnnnnnnnnnnnnnnnn",
"nnnnnnnnnnnnnnnnnnnnnnnnnn"
};
