/* XPM */
static char *result[] = {
/* columns rows colors chars-per-pixel */
"32 32 85 1 ",
"  c #594996",
". c #433482",
"X c #5b4e8b",
"o c #6e658e",
"O c #766DAA",
"+ c #876E9A",
"@ c #89759C",
"# c #89799E",
"$ c #877BA6",
"% c #8B7CA1",
"& c #8478A9",
"* c #87829B",
"= c #8E829B",
"- c #8B8599",
"; c #88819D",
": c #8A859C",
"> c #BDB699",
", c #8981A1",
"< c #8B81A0",
"1 c #8C83A1",
"2 c #8A82AB",
"3 c #9885A6",
"4 c #938EA2",
"5 c #948FA0",
"6 c #988FA4",
"7 c #9287AD",
"8 c #958CA8",
"9 c #958DAC",
"0 c #9D8EAA",
"q c #9D97A0",
"w c #8F84B0",
"e c #A399AF",
"r c #A39CAD",
"t c #BD95A4",
"y c #B4AEAD",
"u c #B7B1AE",
"i c #A8A2B3",
"p c #AAA4B3",
"a c #AEA5BA",
"s c #B0A8B2",
"d c #B3ABB3",
"f c #BBB3BE",
"g c #C0A6A9",
"h c #C1AFAC",
"j c #C4B5B4",
"k c #C4BFB2",
"l c #C1BDB7",
"z c #E8B5AC",
"x c #E0DB9F",
"c c #EBE381",
"v c #CEC8A4",
"b c #C9C5B3",
"n c #D1CDBA",
"m c #D7D4B7",
"M c #EBC8B2",
"N c #ECCDB4",
"B c #dddaa7",
"V c #EED9B8",
"C c #EFDAB8",
"Z c #F0DFBA",
"A c #EFEBA3",
"S c #F1EDAC",
"D c #E4E2BD",
"F c #F0E1BA",
"G c #F1E7BC",
"H c #F2EABE",
"J c #F2F0B7",
"K c #8b75b6",
"L c #B5ABC7",
"P c #C0B9C0",
"I c #CEC7C4",
"U c #DCD8C0",
"Y c #DDD5DE",
"T c #E4DED5",
"R c #EAE6CC",
"E c #ECE9C9",
"W c #EDEAC8",
"Q c #F3E2C3",
"! c #F3E7C2",
"~ c #F3EDC1",
"^ c #F0EEC4",
"/ c #eae99e",
"( c #E6E1D2",
") c #C0D470",
"} c #A4C263",
/* pixels */
")))))///)))///))))////))///)))))",
"))))))))))))))))))))))))))))))))",
"))}}}}))))))))}}))))/////)))))))",
")))}})))))))}}}}))))))))))))))))",
")))))//))))))}}))))))))////)))))",
"))))///)))))))))}}))))))))))))))",
")))/)/)))))))))}}}})))//)///))))",
")))///)))))**)))))**))))))))))))",
")))//))))))-uuq)))-uuq)))))///))",
"))))))))))@NVk *X<GNgo))))))))))",
"))))))))))+zMUKKKPZzto))))))))))",
"))))))))))#CFEYYYTHCho)))))/}}))",
")))))//))<//EYYYT//ko))))//}})))",
")))))))))X<//^RRRW//k ))))//})))",
"))))))))):<my/////myk.))))))))))",
")))/)))))X<Bb/////Bbk ))))))))))",
"))))))))):%Q!/////~Qj.))))))))))",
"))))))))))530iiiiie3=)))))//))))",
"))))))))));arO1>pO2d9)))))))))))",
")))//)))))&TDlvcxlnELo))))))))))",
"))))))))))47y/JAS/m8,)))))))))))",
"))))))))))):$(I6s(f.))))))))))))",
")))))}})))))4w,}4w,)))))))}}})))",
"))))))))))))))))))))))))))))))))",
"))}}))))))))))))))))))))))))))))",
")}}}})))////)))}}}})))))/)))))))",
"))}}}))))///))))}}})))///))//)))",
"))))))))))))))))))//))))))))))))",
")))))))))///))))))))))))))////))",
")))}}}}))))))))))))//))))//)))))",
")))))))))///))))))))))/)))))))))",
"))))))))////)))))/)))))/))}}})))",
};
