/* XPM */
static char *result[] = {
/* columns rows colors chars-per-pixel */
"26 26 50 1 ",
"  c #D5CB7E",
". c #E0D77A",
"X c #5C4E92",
"o c #615490",
"O c #625690",
"+ c #635890",
"@ c #645890",
"# c #665895",
"$ c #675A95",
"% c #685B97",
"& c #695B99",
"* c #6A608F",
"= c #6C6193",
"- c #6E6294",
"; c #6C6097",
": c #6C6098",
"> c #73679B",
", c #746899",
"< c #766DAA",
"1 c #7E75AB",
"2 c #8277AD",
"3 c #8178AB",
"4 c #8278AD",
"5 c #827AAC",
"6 c #E8B5AC",
"7 c #E9B9AD",
"8 c #E9BBAE",
"9 c #E9BEAF",
"0 c #DAD7B9",
"q c #E4E2BC",
"w c #E5E3BC",
"e c #E7E5BE",
"r c #E8E6BD",
"t c #E9E7BD",
"y c #E8E6BE",
"u c #E9E8BD",
"i c #F2ECBE",
"p c #F2EEBF",
"a c #C8C0D1",
"s c #D7CFD6",
"d c #D4CCD9",
"f c #DFD8DB",
"g c #F3DBC5",
"h c #F3DCC4",
"j c #E5E3C0",
"k c #F3F0C0",
"l c #F2F1C0",
"z c #F3F2C0",
"x c #F1F0C2",
"c c None",
/* pixels */
"cccccccccccccccccccccccccc",
"cccccccccccccccccccccccccc",
"cccccccccccccccccccccccccc",
"cccccccccccccccccccccccccc",
"ccccccccccc*@@cccccccccccc",
"cccccccccc*0qq=ccccccccccc",
"ccccccccc*098p$+cccccccccc",
"cccccccccOr76pwq=ccccccccc",
"cccccccccOriizzz$ccccccccc",
"cccccccccOrzzzzz$ccccccccc",
"cccccccc*Xrzzzzz$+cccccccc",
"cccccccccorzzz,uw#cccccccc",
"cccccccc*Xrzzzwlz$cccccccc",
"cccccccccorzhgkzz$cccccccc",
"cccccccccc-34255:ccccccccc",
"ccccccccc*aj1<<< ccccccccc",
"cccccccccOdxyee%.ccccccccc",
"cccccccccc;tzzz$cccccccccc",
"ccccccccccc-sf>ccccccccccc",
"cccccccccccc;&cccccccccccc",
"cccccccccccccccccccccccccc",
"cccccccccccccccccccccccccc",
"cccccccccccccccccccccccccc",
"cccccccccccccccccccccccccc",
"cccccccccccccccccccccccccc",
"cccccccccccccccccccccccccc"
};
