/* XPM */
static char *result[] = {
/* columns rows colors chars-per-pixel */
"26 26 43 1 ",
"  c #5D4F91",
". c #5D4F92",
"X c #5D5091",
"o c #5E5092",
"O c #5F5193",
"+ c #6F6791",
"@ c #706791",
"# c #716891",
"$ c #726991",
"% c #7C719B",
"& c #7C719C",
"* c #7E739C",
"= c #7F749D",
"- c #7066A5",
"; c #7167A5",
": c #786BA1",
"> c #786BA2",
", c #786CA3",
"< c #756CAA",
"1 c #766DAA",
"2 c #9089AE",
"3 c #9089AF",
"4 c #918AAF",
"5 c #D0CCB5",
"6 c #D1CDB6",
"7 c #D3CFB6",
"8 c #D8D5BB",
"9 c #F0EFBF",
"0 c #F1EFBF",
"q c #BFB6CC",
"w c #C2B9CD",
"e c #C1B8CE",
"r c #DAD2DD",
"t c #DDD6DD",
"y c #E2DCD7",
"u c #E2DBD8",
"i c #EBE9C5",
"p c #EEEBC6",
"a c #EEECC6",
"s c #F2F1C0",
"d c #F3F1C1",
"f c #F3F2C0",
"g c None",
/* pixels */
"gggggggggggggggggggggggggg",
"gggggggggggggggggggggggggg",
"gggggggggggggggggggggggggg",
"gggggggggggggggggggggggggg",
"ggggggg%&&.ggggg%&&ggggggg",
"ggggggX9ff=>>>>&0ffOgggggg",
"ggggggX9fffyuuuffffOgggggg",
"gggggg$5sfffffffff7#gggggg",
"gggggggo9fffffffffOggggggg",
"gggggg$ 9fffffffffO@gggggg",
"gggggggo9fffffffffOggggggg",
"gggggg$ 9fffffffffO@gggggg",
"ggggggg$5788888877#ggggggg",
"gggggggg$ <11111.@gggggggg",
"ggggggggg:24;-34,ggggggggg",
"ggggggggXrd7*&6stOgggggggg",
"gggggggg$qs=0f=0w#gggggggg",
"gggggggggXia77paOggggggggg",
"ggggggggg$qe#+qe#ggggggggg",
"gggggggggg$+gg$+gggggggggg",
"gggggggggggggggggggggggggg",
"gggggggggggggggggggggggggg",
"gggggggggggggggggggggggggg",
"gggggggggggggggggggggggggg",
"gggggggggggggggggggggggggg",
"gggggggggggggggggggggggggg"
};
