/* XPM */
static char *result[] = {
/* columns rows colors chars-per-pixel */
"26 26 56 1 ",
"  c #615590",
". c #71688F",
"X c #716891",
"o c #726A92",
"O c #7A7394",
"+ c #7E739C",
"@ c #796CA3",
"# c #766DAA",
"$ c #827692",
"% c #847D97",
"& c #827A9B",
"* c #837A9F",
"= c #867DA1",
"- c #8377A9",
"; c #878099",
": c #8F8B9F",
"> c #ADA686",
", c #8D84A4",
"< c #9890AD",
"1 c #9C92AE",
"2 c #9D94AC",
"3 c #9C8DB2",
"4 c #9C8FB2",
"5 c #9C93B1",
"6 c #9C95B1",
"7 c #A095A6",
"8 c #A199A7",
"9 c #AEA8A7",
"0 c #AEA7AB",
"q c #B6B0B2",
"w c #BAB5B6",
"e c #E8B5AC",
"r c #C6C181",
"t c #C6C1B2",
"y c #CEC2B2",
"u c #CDCAB9",
"i c #D0CCB5",
"p c #D1CDB6",
"a c #DBD8B9",
"s c #EAC3B0",
"d c #EBC7B2",
"f c #EDD1B5",
"g c #E9E7BD",
"h c #EBE9BF",
"j c #F0E0BA",
"k c #F0E4BB",
"l c #F1E4BC",
"z c #BBB3C4",
"x c #D0C9C9",
"c c #E2DBD7",
"v c #E4DED5",
"b c #F3E0C3",
"n c #F3E4C3",
"m c #F3EEC1",
"M c #F3F2C0",
"N c None",
/* pixels */
"NNNNNNNNNNNNNNNNNNNNNNNNNN",
"NNNNNNNNNNNNNNNNNNNNNNNNNN",
"NNNNNNNNNNNNNNNNNNNNNNNNNN",
"NNNNNNNNNNNNNNNNNNNNNNNNNN",
"NNNNNNNNNNOO:NNNNNNNNNNNNN",
"NNNNNNNNN%tt9OO:NNNNNNNNNN",
"NNNNNNNN%ydfgtt9:NNNNNNNNN",
"NNNNNNNN+lesMMMpXNNNNNNNNN",
"NNNNNNNNN7jkMMMpXNNNNNNNNN",
"NNNNNNNNo+MMMMMp :NNNNNNNN",
"NNNNNNNNN+MMMa8g0XNNNNNNNN",
"NNNNNNNNo+MMMgiMpXNNNNNNNN",
"NNNNNNNNN+MmbnMMpXNNNNNNNN",
"NNNNNNNNNN,5346<;NNNNNNNNN",
"NNNNNNNNN&zw###=>NNNNNNNNN",
"NNNNNNNNN@chuuq$rNNNNNNNNN",
"NNNNNNNNNN1MMMp.NNNNNNNNNN",
"NNNNNNNNNN+MMMpXNNNNNNNNNN",
"NNNNNNNNNNN2vx;NNNNNNNNNNN",
"NNNNNNNNNNNN-*NNNNNNNNNNNN",
"NNNNNNNNNNNNNNNNNNNNNNNNNN",
"NNNNNNNNNNNNNNNNNNNNNNNNNN",
"NNNNNNNNNNNNNNNNNNNNNNNNNN",
"NNNNNNNNNNNNNNNNNNNNNNNNNN",
"NNNNNNNNNNNNNNNNNNNNNNNNNN",
"NNNNNNNNNNNNNNNNNNNNNNNNNN"
};
