/* XPM */
static char *result[] = {
/* columns rows colors chars-per-pixel */
"26 26 46 1 ",
"  c #C5BB7E",
". c #E6DE78",
"X c #5D4F91",
"o c #5D5091",
"O c #5E5092",
"+ c #5E5093",
"@ c #5E5193",
"# c #655897",
"$ c #736B92",
"% c #746C92",
"& c #746D92",
"* c #746C93",
"= c #7C6FA5",
"- c #776EA9",
"; c #766DAA",
": c #7C70A4",
"> c #7E71A5",
", c #81779C",
"< c #81779E",
"1 c #83789E",
"2 c #948DAF",
"3 c #958EAF",
"4 c #9587B1",
"5 c #E8B5AC",
"6 c #E8B6AC",
"7 c #CCC7B4",
"8 c #CCC8B4",
"9 c #CECAB5",
"0 c #D2CFBA",
"q c #D3D0BA",
"w c #D4D1BB",
"e c #EBC4B1",
"r c #EBC5B1",
"t c #F0E3BB",
"y c #F1EFBF",
"u c #F1F0BF",
"i c #BEB4CB",
"p c #DDD5DE",
"a c #F3DEC4",
"s c #F3DFC4",
"d c #E1DBD6",
"f c #E2DCD7",
"g c #F2F1C0",
"h c #F3F1C0",
"j c #F3F2C0",
"k c None",
/* pixels */
"kkkkkkkkkkkkkkkkkkkkkkkkkk",
"kkkkkkkkkkkkkkkkkkkkkkkkkk",
"kkkkkkkkkkkkkkkkkkkkkkkkkk",
"kkkkkkkkkkkkkkkkkkkkkkkkkk",
"kkkkkkkkkkkkkkkkkkkkkkkkkk",
"kkkkkkkkkkk&$$kkkkkkkkkkkk",
"kkkkkkkkkk&799%kkkkkkkkkkk",
"kkkkkkkkk&Xyre9%kkkkkkkkkk",
"kkkkkkkk&79g65h@kkkkkkkkkk",
"kkkkkkkkOyjjttj@kkkkkkkkkk",
"kkkkkkkkOyjjjjj@kkkkkkkkkk",
"kkkkkkk&Xyjjjjj@$kkkkkkkkk",
"kkkkkkkO8g1ujjj@kkkkkkkkkk",
"kkkkkkkOyj9gjjj@$kkkkkkkkk",
"kkkkkkkOyjjsajj@kkkkkkkkkk",
"kkkkkkkk,23443<kkkkkkkkkkk",
"kkkkkkkk -;;;qi*kkkkkkkkkk",
"kkkkkkkk.#0wwhp+kkkkkkkkkk",
"kkkkkkkkkoyjjj>kkkkkkkkkkk",
"kkkkkkkkkk,df1kkkkkkkkkkkk",
"kkkkkkkkkkk:=kkkkkkkkkkkkk",
"kkkkkkkkkkkkkkkkkkkkkkkkkk",
"kkkkkkkkkkkkkkkkkkkkkkkkkk",
"kkkkkkkkkkkkkkkkkkkkkkkkkk",
"kkkkkkkkkkkkkkkkkkkkkkkkkk",
"kkkkkkkkkkkkkkkkkkkkkkkkkk"
};
