/* XPM */
static char *result[] = {
/* columns rows colors chars-per-pixel */
"20 20 73 1 ",
"  c #EAE27A",
". c #5C4E92",
"X c #5D4F93",
"o c #5E5291",
"O c #5F5291",
"+ c #615293",
"@ c #615393",
"# c #625393",
"$ c #615294",
"% c #625494",
"& c #6E6591",
"* c #6F6691",
"= c #716991",
"- c #726A91",
"; c #716992",
": c #7B719A",
"> c #7B709C",
", c #776BA0",
"< c #776AA1",
"1 c #776AA2",
"2 c #7C6FA3",
"3 c #756CA9",
"4 c #766DAA",
"5 c #776EAA",
"6 c #80759D",
"7 c #8E85A0",
"8 c #8F87AE",
"9 c #8F88AE",
"0 c #9089AF",
"q c #938CAC",
"w c #CEB8B9",
"e c #D4BBBA",
"r c #D4BCBA",
"t c #E3B1AB",
"y c #E8B5AC",
"u c #E8B7AD",
"i c #E5BDAF",
"p c #ECE587",
"a c #ECE589",
"s c #CFCBB5",
"d c #D3CFB7",
"f c #D4D0B6",
"g c #D5D1B7",
"h c #D9D5BB",
"j c #D9D6BB",
"k c #EAC2B0",
"l c #EBC4B1",
"z c #EBDFBA",
"x c #EDEAB1",
"c c #EDE6BF",
"v c #EDECBE",
"b c #EEEDBF",
"n c #EFEEBF",
"m c #F1E5BC",
"M c #F1E6BC",
"N c #F3F1BE",
"B c #F3F0BF",
"V c #BFB5CB",
"C c #BEB5CC",
"Z c #C2B9CE",
"A c #C4BBCE",
"S c #D8D0DB",
"D c #DED6DD",
"F c #DDD5DE",
"G c #E2DCD7",
"H c #E2DBD8",
"J c #EDEBC6",
"K c #EEECC6",
"L c #F3EDC1",
"P c #F2F1C0",
"I c #F2F1C1",
"U c #F3F2C0",
"Y c None",
/* pixels */
"YYYYYYYYYYYYYYYYYYYY",
"YYYYYYYYYYYYYYYYYYYY",
"YYYYY>>:YYYY>>:YYYYY",
"YYYY%mMvoYY%UmzOYYYY",
"YYYY+yub1112BytOYYYY",
"YYYY#klIFFFDBkiOYYYY",
"YYYY%UUIFFFDUUvOYYYY",
"YYYY%UUIHHHGUUvoYYYY",
"YYY&%PgUUUUUPgv.-YYY",
"YYYY%b6UUUUUb6voYYYY",
"YYY&%LLUUUUUULc.-YYY",
"YYYY$erjjjjjhew-YYYY",
"YYYYX<>457843.OYYYYY",
"YYYY;An0q x09>,YYYYY",
"YYYYY=gUNpaPgISOYYYY",
"YYYYYY%KJffs@dCOYYYY",
"YYYYYY;ZV******-YYYY",
"YYYYYYY*-YYYYYYYYYYY",
"YYYYYYYYYYYYYYYYYYYY",
"YYYYYYYYYYYYYYYYYYYY"
};
