/* XPM */
static char *result[] = {
/* columns rows colors chars-per-pixel */
"26 26 59 1 ",
"  c #5C4E92",
". c #605291",
"X c #615396",
"o c #675D90",
"O c #665A98",
"+ c #75688D",
"@ c #7F778E",
"# c #6C6290",
"$ c #6F6791",
"% c #716598",
"& c #776B9A",
"* c #7D7595",
"= c #7E7697",
"- c #7B729B",
"; c #7C719C",
": c #7C709D",
"> c #7269A7",
", c #766CA4",
"< c #817A97",
"1 c #837AB0",
"2 c #8B829C",
"3 c #B8B184",
"4 c #8B83AF",
"5 c #8C84AE",
"6 c #9186A1",
"7 c #9188A2",
"8 c #BDB8AD",
"9 c #BEB8B0",
"0 c #E8B5AC",
"q c #C7C281",
"w c #D3CFB6",
"e c #DDCABF",
"r c #D8D5B8",
"t c #D9D6B9",
"y c #DDD6BD",
"u c #DCD9BB",
"i c #DEDBBA",
"p c #DDDBBC",
"a c #EAC0B0",
"s c #EAC2B0",
"d c #ECCBB3",
"f c #EDECBE",
"g c #F1E5BC",
"h c #F1E7BC",
"j c #F1EABD",
"k c #AFA6C1",
"l c #B5ACC5",
"z c #C1B8CE",
"x c #C6BDD1",
"c c #DDC5C0",
"v c #E9E7C4",
"b c #EAE8C2",
"n c #EFEDC5",
"m c #EEECC6",
"M c #F3EDC1",
"N c #F3EEC1",
"B c #F3F1C0",
"V c #F3F2C0",
"C c None",
/* pixels */
"CCCCCCCCCCCCCCCCCCCCCCCCCC",
"CCCCCCCCCCCCCCCCCCCCCCCCCC",
"CCCCCCCCCCCCCCCCCCCCCCCCCC",
"CCCCCCCCCCCCCCCCCCCCCCCCCC",
"CCCCCCCCCCC&&*CCCCCCCCCCCC",
"CCCCCCCCCC6hjw#CCCCCCCCCCC",
"CCCCCCCCC;g0sr&*CCCCCCCCCC",
"CCCCCCCCC;hadVVw$CCCCCCCCC",
"CCCCCCCCC;VVVVVw$CCCCCCCCC",
"CCCCCCCCC;VVVVVw#CCCCCCCCC",
"CCCCCCCCo;VVVfir%$CCCCCCCC",
"CCCCCCCCC;VVVr7Vw$CCCCCCCC",
"CCCCCCCCo;VBMNVVw$CCCCCCCC",
"CCCCCCCCC=tycepu8<CCCCCCCC",
"CCCCCCCCCCO541>,@CCCCCCCCC",
"CCCCCCCCCC;VmzX2qCCCCCCCCC",
"CCCCCCCCCC7Vvl%+3CCCCCCCCC",
"CCCCCCCCC:nb9&9 $CCCCCCCCC",
"CCCCCCCCC-xk#o .<CCCCCCCCC",
"CCCCCCCCCC#<CC#<CCCCCCCCCC",
"CCCCCCCCCCCCCCCCCCCCCCCCCC",
"CCCCCCCCCCCCCCCCCCCCCCCCCC",
"CCCCCCCCCCCCCCCCCCCCCCCCCC",
"CCCCCCCCCCCCCCCCCCCCCCCCCC",
"CCCCCCCCCCCCCCCCCCCCCCCCCC",
"CCCCCCCCCCCCCCCCCCCCCCCCCC"
};
