/* XPM */
static char *result[] = {
/* columns rows colors chars-per-pixel */
"26 26 46 1 ",
"  c #5D4F91",
". c #5C4E92",
"X c #5D4F92",
"o c #5E5092",
"O c #5E5193",
"+ c #665A9A",
"@ c #7E7896",
"# c #7F7896",
"$ c #7F7996",
"% c #6F65A2",
"& c #766DAA",
"* c #776EAA",
"= c #786FAA",
"- c #807A97",
"; c #877CAB",
": c #B9AE81",
"> c #8F85A1",
", c #8F86A2",
"< c #9187A2",
"1 c #A29CB2",
"2 c #BEB8AF",
"3 c #BEB9B0",
"4 c #C2B989",
"5 c #C0BAB0",
"6 c #C0BBB0",
"7 c #C0BBB1",
"8 c #E8B5AC",
"9 c #E8B6AC",
"0 c #ECCAB3",
"q c #EFDDB9",
"w c #EFDEB9",
"e c #F1EFBF",
"r c #F1F0BF",
"t c #AFA5C3",
"y c #B1A7C4",
"u c #DBD3DD",
"i c #F1D6C5",
"p c #F1DFC3",
"a c #E9E6C9",
"s c #ECE8CA",
"d c #F1E7C1",
"f c #F1F0C0",
"g c #F2F1C0",
"h c #F3F1C0",
"j c #F3F2C0",
"k c None",
/* pixels */
"kkkkkkkkkkkkkkkkkkkkkkkkkk",
"kkkkkkkkkkkkkkkkkkkkkkkkkk",
"kkkkkkkkkkkkkkkkkkkkkkkkkk",
"kkkkkkkkkkkkkkkkkkkkkkkkkk",
"kkkkkkkkkkk$OOkkkkkkkkkkkk",
"kkkkkkkkkk$6hj,kkkkkkkkkkk",
"kkkkkkkkk$508q<Okkkkkkkkkk",
"kkkkkkkkk$509wjj,kkkkkkkkk",
"kkkkkkkkk$5jjjjj,kkkkkkkkk",
"kkkkkkkkk@5jjjjj,kkkkkkkkk",
"kkkkkkkk- 5jjjfg<Xkkkkkkkk",
"kkkkkkkkk@5jjj<7j,kkkkkkkk",
"kkkkkkkk- 5jjjjjj,kkkkkkkk",
"kkkkkkkkk-2fpidfr>kkkkkkkk",
"kkkkkkkkkk#%*&&&+kkkkkkkkk",
"kkkkkkkkk$ys1==&4kkkkkkkkk",
"kkkkkkkkk-tagjj<:kkkkkkkkk",
"kkkkkkkkkk$.3egj,kkkkkkkkk",
"kkkkkkkkkk- . tu;kkkkkkkkk",
"kkkkkkkkkkk-ok-okkkkkkkkkk",
"kkkkkkkkkkkkkkkkkkkkkkkkkk",
"kkkkkkkkkkkkkkkkkkkkkkkkkk",
"kkkkkkkkkkkkkkkkkkkkkkkkkk",
"kkkkkkkkkkkkkkkkkkkkkkkkkk",
"kkkkkkkkkkkkkkkkkkkkkkkkkk",
"kkkkkkkkkkkkkkkkkkkkkkkkkk"
};
