/* XPM */
static char *result[] = {
/* columns rows colors chars-per-pixel */
"26 26 62 1 ",
"  c #D4CE7B",
". c #5C4E92",
"X c #665A8F",
"o c #605490",
"O c #615591",
"+ c #645795",
"@ c #6B5D9B",
"# c #6D6197",
"$ c #776C9A",
"% c #766DAA",
"& c #7B72A6",
"* c #9D9386",
"= c #9E9586",
"- c #8C889D",
"; c #8F8B9F",
": c #918D9F",
"> c #908CA0",
", c #938EA1",
"< c #9390A1",
"1 c #9692A3",
"2 c #9F97A4",
"3 c #968BB0",
"4 c #9B90B7",
"5 c #9D92B6",
"6 c #A099A4",
"7 c #A098A7",
"8 c #A69FA9",
"9 c #A096B8",
"0 c #A8A0A5",
"q c #A9A1A9",
"w c #A8A0AA",
"e c #AEA6AD",
"r c #AFA8AB",
"t c #B0A7AB",
"y c #B1AAAC",
"u c #ADA7B3",
"i c #AEA9B4",
"p c #B4A2B7",
"a c #B4A3B7",
"s c #B2ADB3",
"d c #B4ADB5",
"f c #B4AEB5",
"g c #B5B1B5",
"h c #E8B5AC",
"j c #E9BCAE",
"k c #EDD3B6",
"l c #EED4B6",
"z c #EED7B7",
"x c #E2DFBB",
"c c #EAE9BD",
"v c #EBE9BD",
"b c #ECEBBF",
"n c #F2EBBE",
"m c #F2EFBF",
"M c #D8D2C8",
"N c #DFD8DB",
"B c #E8E3CF",
"V c #F3E5C3",
"C c #F3E6C2",
"Z c #F3F1C0",
"A c #F3F2C0",
"S c None",
/* pixels */
"SSSSSSSSSSSSSSSSSSSSSSSSSS",
"SSSSSSSSSSSSSSSSSSSSSSSSSS",
"SSSSSSSSSSSSSSSSSSSSSSSSSS",
"SSSSSSSSSSSSSSSSSSSSSSSSSS",
"SSSSSSSSSSSSS11SSSSSSSSSSS",
"SSSSSSSSSSSS6qq:SSSSSSSSSS",
"SSSSSSSSSSSoxzkt:SSSSSSSSS",
"SSSSSSSSSS6qvjhn#SSSSSSSSS",
"SSSSSSSSSXxAAzlm#SSSSSSSSS",
"SSSSSSSSSXxAAAAA#SSSSSSSSS",
"SSSSSSSSSoxAAAAA#-SSSSSSSS",
"SSSSSSSSX7vrcAAA#;SSSSSSSS",
"SSSSSSSSXxAyvAAA#-SSSSSSSS",
"SSSSSSSSXxAACVZA#;SSSSSSSS",
"SSSSSSSSS2sfapdw<SSSSSSSSS",
"SSSSSSSSS=&%%%i9>SSSSSSSSS",
"SSSSSSSSS $uggbN@SSSSSSSSS",
"SSSSSSSSS*0vAAr5,SSSSSSSSS",
"SSSSSSSSSXMBe8+.SSSSSSSSSS",
"SSSSSSSSSS34,O.;SSSSSSSSSS",
"SSSSSSSSSSSSSSSSSSSSSSSSSS",
"SSSSSSSSSSSSSSSSSSSSSSSSSS",
"SSSSSSSSSSSSSSSSSSSSSSSSSS",
"SSSSSSSSSSSSSSSSSSSSSSSSSS",
"SSSSSSSSSSSSSSSSSSSSSSSSSS",
"SSSSSSSSSSSSSSSSSSSSSSSSSS"
};
