/* XPM */
static char *result[] = {
/* columns rows colors chars-per-pixel */
"26 26 59 1 ",
"  c #655A90",
". c #635699",
"X c #6A6090",
"o c #776F93",
"O c #787194",
"+ c #6B5FA0",
"@ c #6E64A3",
"# c #766DAA",
"$ c #7F73A7",
"% c #857B9F",
"& c #8276A4",
"* c #8378A2",
"= c #87829B",
"- c #8A8499",
"; c #88819C",
": c #8F889B",
"> c #8C889D",
", c #8981A2",
"< c #8C83A3",
"1 c #8D84A6",
"2 c #8F86A6",
"3 c #988FA4",
"4 c #9287AD",
"5 c #9188A9",
"6 c #978FAD",
"7 c #9592A0",
"8 c #9490A2",
"9 c #9790AE",
"0 c #8F84B0",
"q c #9891B0",
"w c #A09AA2",
"e c #A199A9",
"r c #A59EAD",
"t c #B1AAAC",
"y c #B7B1AE",
"u c #A8A2B0",
"i c #ABA2B5",
"p c #ADA4BB",
"a c #C3BDBC",
"s c #C7C3B3",
"d c #CAC5B3",
"f c #DAD7B8",
"g c #DEDCBC",
"h c #E3E0BB",
"j c #E5E4BE",
"k c #AA9FC0",
"l c #BEB6C0",
"z c #BAB0C9",
"x c #C0B8C1",
"c c #D1CAC6",
"v c #DCD8C4",
"b c #E3DDD6",
"n c #EFEDC5",
"m c #EAE6CC",
"M c #EDEAC8",
"N c #F1EFC3",
"B c #F3F2C0",
"V c #E6E1D2",
"C c None",
/* pixels */
"CCCCCCCCCCCCCCCCCCCCCCCCCC",
"CCCCCCCCCCCCCCCCCCCCCCCCCC",
"CCCCCCCCCCCCCCCCCCCCCCCCCC",
"CCCCCCCCCCCCCCCCCCCCCCCCCC",
"CCCCCCCCooCCCCCooCCCCCCCCC",
"CCCCCCC:ddwCCC:ddwCCCCCCCC",
"CCCCCCC3BBy oX3BBy=CCCCCCC",
"CCCCCCC3BBvzzzcBBy=CCCCCCC",
"CCCCCCC3BBNMMMnBBy=CCCCCCC",
"CCCCCCC3BBBBBBBBBy=CCCCCCC",
"CCCCCCX3BBBBBBBBBy CCCCCCC",
"CCCCCC>3BBBBBBBBByOCCCCCCC",
"CCCCCCX3BBBBBBBBBy CCCCCCC",
"CCCCCC>3BBBBBBBBByOCCCCCCC",
"CCCCCCC7%1qqqqq5%-CCCCCCCC",
"CCCCCCC,xu#@.+#9a6CCCCCCCC",
"CCCCCCC0Vjr<de2gmk=CCCCCCC",
"CCCCCCC8&thfBhfs*;CCCCCCCC",
"CCCCCCCC>4bl%ibpOCCCCCCCCC",
"CCCCCCCCC8$;C8$;CCCCCCCCCC",
"CCCCCCCCCCCCCCCCCCCCCCCCCC",
"CCCCCCCCCCCCCCCCCCCCCCCCCC",
"CCCCCCCCCCCCCCCCCCCCCCCCCC",
"CCCCCCCCCCCCCCCCCCCCCCCCCC",
"CCCCCCCCCCCCCCCCCCCCCCCCCC",
"CCCCCCCCCCCCCCCCCCCCCCCCCC"
};
