/* XPM */
static char *result[] = {
/* columns rows colors chars-per-pixel */
"26 26 58 1 ",
"  c #6A6090",
". c #706791",
"X c #766DAA",
"o c #817B97",
"O c #847F99",
"+ c #878190",
"@ c #8A849F",
"# c #8E889A",
"$ c #8D899E",
"% c #8E899F",
"& c #918898",
"* c #908A9B",
"= c #908C9C",
"- c #97919D",
"; c #A0958C",
": c #A9A699",
"> c #BAB796",
", c #8B83A1",
"< c #8C81AE",
"1 c #9188A2",
"2 c #9E96A6",
"3 c #9B93AB",
"4 c #9C94AA",
"5 c #9E96AC",
"6 c #9489B3",
"7 c #A595B4",
"8 c #A599B3",
"9 c #A59BB3",
"0 c #A29CB2",
"q c #A59FB2",
"w c #B1AAAC",
"e c #BCAEAD",
"r c #BAB4AF",
"t c #B7AFBD",
"y c #B9B2B6",
"u c #BEB8B0",
"i c #B8B0B8",
"p c #C2BBBE",
"a c #D0BFB1",
"s c #E8B5AC",
"d c #CAC5B3",
"f c #C4C0B8",
"g c #D3CFB6",
"h c #DAD7B8",
"j c #DEDCBC",
"k c #ECCCB3",
"l c #EDD0B5",
"z c #EED7B7",
"x c #EFDBB8",
"c c #EFDDB9",
"v c #F1E5BC",
"b c #F3E2C3",
"n c #F3EBC1",
"m c #F3E9C2",
"M c #F3F2C0",
"N c #E7E2D1",
"B c #E5E0D3",
"V c None",
/* pixels */
"VVVVVVVVVVVVVVVVVVVVVVVVVV",
"VVVVVVVVVVVVVVVVVVVVVVVVVV",
"VVVVVVVVVVVVVVVVVVVVVVVVVV",
"VVVVVVVVVVVVVVVVVVVVVVVVVV",
"VVVVVVVVVVVVVVVVVVVVVVVVVV",
"VVVVVVVVVVVVVOOVVVVVVVVVVV",
"VVVVVVVVVVOO-rr*VVVVVVVVVV",
"VVVVVVVVV-rrhcka*VVVVVVVVV",
"VVVVVVVV$wMMMlsz2VVVVVVVVV",
"VVVVVVVV$wMMMvxe=VVVVVVVVV",
"VVVVVVVV wMMMMM2.VVVVVVVVV",
"VVVVVVV$1hudMMM2oVVVVVVVVV",
"VVVVVVV$wMghMMM2.VVVVVVVVV",
"VVVVVVV$wMMmbnM2oVVVVVVVVV",
"VVVVVVVV#5q8794=VVVVVVVVVV",
"VVVVVVVV:&XXX0t,VVVVVVVVVV",
"VVVVVVVV>;3ffjN6VVVVVVVVVV",
"VVVVVVVVV+wMMMy%VVVVVVVVVV",
"VVVVVVVVV$wMMM2VVVVVVVVVVV",
"VVVVVVVVVV#pBi=VVVVVVVVVVV",
"VVVVVVVVVVV@<%VVVVVVVVVVVV",
"VVVVVVVVVVVVVVVVVVVVVVVVVV",
"VVVVVVVVVVVVVVVVVVVVVVVVVV",
"VVVVVVVVVVVVVVVVVVVVVVVVVV",
"VVVVVVVVVVVVVVVVVVVVVVVVVV",
"VVVVVVVVVVVVVVVVVVVVVVVVVV"
};
