/* XPM */
static char *result[] = {
/* columns rows colors chars-per-pixel */
"26 26 52 1 ",
"  c #D1C77D",
". c #5C4F91",
"X c #5C4E92",
"o c #5D4F92",
"O c #5D4F93",
"+ c #5F5191",
"@ c #5E5291",
"# c #605291",
"$ c #605293",
"% c #605294",
"& c #655898",
"* c #6A6190",
"= c #6C6290",
"- c #6D6591",
"; c #6E6490",
": c #6E6491",
"> c #73669F",
", c #766A9A",
"< c #776B9A",
"1 c #776C99",
"2 c #7A6F9B",
"3 c #7A6E9C",
"4 c #7366A0",
"5 c #776AA0",
"6 c #7268A6",
"7 c #756CA7",
"8 c #7A70AB",
"9 c #7A71AB",
"0 c #E8B5AC",
"q c #E8B7AD",
"w c #D2C981",
"e c #D4D1B6",
"r c #D5D2B7",
"t c #D8D5B8",
"y c #D9D6B8",
"u c #E9C0B0",
"i c #EAC0B0",
"p c #EEEDBF",
"a c #EFEEBF",
"s c #F1E7BC",
"d c #F1E8BD",
"f c #F3F0BF",
"g c #C7BED0",
"h c #DED7D7",
"j c #DED6DD",
"k c #F3D9C5",
"l c #F3DDC4",
"z c #E1DAD9",
"x c #F3EEC1",
"c c #F2F1C0",
"v c #F3F2C0",
"b c None",
/* pixels */
"bbbbbbbbbbbbbbbbbbbbbbbbbb",
"bbbbbbbbbbbbbbbbbbbbbbbbbb",
"bbbbbbbbbbbbbbbbbbbbbbbbbb",
"bbbbbbbbbbbbbbbbbbbbbbbbbb",
"bbbbbbbbbbbbbbbbbbbbbbbbbb",
"bbbbbbbbbbbb@@-bbbbbbbbbbb",
"bbbbbbbbbbb1ppe-bbbbbbbbbb",
"bbbbbbbbbb+<dque-bbbbbbbbb",
"bbbbbbbbb1pas0it=bbbbbbbbb",
"bbbbbbbbb<vvvfft=bbbbbbbbb",
"bbbbbbbbb<vvvvvt=bbbbbbbbb",
"bbbbbbbb+<vvvvvt.-bbbbbbbb",
"bbbbbbbb,ay2vvvt*bbbbbbbbb",
"bbbbbbbb<vcavvvt.-bbbbbbbb",
"bbbbbbbb<vvxklvt*bbbbbbbbb",
"bbbbbbbbb&99887;bbbbbbbbbb",
"bbbbbbbbbw64har=bbbbbbbbbb",
"bbbbbbbbb O>zvt=bbbbbbbbbb",
"bbbbbbbbb#,r3vce-bbbbbbbbb",
"bbbbbbbbbXo$o5jg=bbbbbbbbb",
"bbbbbbbbbbX*bb%:bbbbbbbbbb",
"bbbbbbbbbbbbbbbbbbbbbbbbbb",
"bbbbbbbbbbbbbbbbbbbbbbbbbb",
"bbbbbbbbbbbbbbbbbbbbbbbbbb",
"bbbbbbbbbbbbbbbbbbbbbbbbbb",
"bbbbbbbbbbbbbbbbbbbbbbbbbb"
};
