/* XPM */
static char *result[] = {
/* columns rows colors chars-per-pixel */
"26 26 56 1 ",
"  c #5C4E92",
". c #5D5092",
"X c #5F5193",
"o c #615590",
"O c #625790",
"+ c #615497",
"@ c #645797",
"# c #685B96",
"$ c #635698",
"% c #675A98",
"& c #6B5F99",
"* c #6B5F9A",
"= c #6D6391",
"- c #6E6590",
"; c #756C93",
": c #756E92",
"> c #786D9B",
", c #7B6F9B",
"< c #7A6F9C",
"1 c #786C9E",
"2 c #7B7198",
"3 c #7C719D",
"4 c #7467A0",
"5 c #7669A1",
"6 c #746AA8",
"7 c #746BA8",
"8 c #766DAA",
"9 c #857A9E",
"0 c #8075A4",
"q c #8E86AD",
"w c #8F88AE",
"e c #CAC6B2",
"r c #CBC6B4",
"t c #CDC9B4",
"y c #CDC9B6",
"u c #D0CCB9",
"i c #D3CFB9",
"p c #D4D1B7",
"a c #D7D3B7",
"s c #D9D6BB",
"d c #E7E5BC",
"f c #F0EFBF",
"g c #BAB0C8",
"h c #C3BACF",
"j c #C4BBCD",
"k c #C7BECD",
"l c #D2CAD8",
"z c #D9D2D3",
"x c #E1DBD8",
"c c #EFEDC1",
"v c #EFECC6",
"b c #EFEDC6",
"n c #F1F0C0",
"m c #F3F2C0",
"M c #F1F0C2",
"N c None",
/* pixels */
"NNNNNNNNNNNNNNNNNNNNNNNNNN",
"NNNNNNNNNNNNNNNNNNNNNNNNNN",
"NNNNNNNNNNNNNNNNNNNNNNNNNN",
"NNNNNNNNNNNNNNNNNNNNNNNNNN",
"NNNNNNNNNNNNNNNNNNNNNNNNNN",
"NNNNNNNN--:NNNN--:NNNNNNNN",
"NNNNNNN;ppe:NN;ppe:NNNNNNN",
"NNNNNNN#mmd.-=#mmdONNNNNNN",
"NNNNNNN#mmchhhkmmdONNNNNNN",
"NNNNNNN#mmmvvvbmmdONNNNNNN",
"NNNNNNN#mmmmmmmmmdONNNNNNN",
"NNNNNN=#mmmmmmmmmd.:NNNNNN",
"NNNNNNN#mmmmmmmmmdoNNNNNNN",
"NNNNNN=#mmmmmmmmmd.:NNNNNN",
"NNNNNNN#mmmmmmmmmdoNNNNNNN",
"NNNNNNNX,3wwwwwq,2NNNNNNNN",
"NNNNNNN@jy87+$86 ONNNNNNNN",
"NNNNNNNN0nu&pr*sig:NNNNNNN",
"NNNNNNNNN9famft9MlONNNNNNN",
"NNNNNNNNN%xz,,>X<4ONNNNNNN",
"NNNNNNNNNN51NNNNNNNNNNNNNN",
"NNNNNNNNNNNNNNNNNNNNNNNNNN",
"NNNNNNNNNNNNNNNNNNNNNNNNNN",
"NNNNNNNNNNNNNNNNNNNNNNNNNN",
"NNNNNNNNNNNNNNNNNNNNNNNNNN",
"NNNNNNNNNNNNNNNNNNNNNNNNNN"
};
