/* XPM */
static char *result[] = {
/* columns rows colors chars-per-pixel */
"48 32 4 1 ",
"  c #DCB98A",
". c #E1C397",
"X c #E8CFA6",
"o c #EDDAB5",
/* pixels */
"XXXXXXXXXXXXXXXXXXXXXXXXXXXXXXXXXXXXXXXXXXXXXXXX",
"XXXXXXXXXXXXXXXXXXXXXXXXXXXXXXXXXXXXXXXXXXXXXXXX",
"XXXXXXXXXXXXXXXXXXXXXXXXXXXXXXXXXXXXXXXXXXXXXXXX",
"XXXXXXXXXXXXXXXXXXXXXXXXXXXXXXXXXXXXXXXXooooXXXX",
"XXXXXXXXXXXXXXXXXXXXXX..XXXXXXXXXXXXXXXooooooXXX",
"XXXXXXXXXXXXXXXXXXXXX....XXXXXXXXXXXXXXXooooXXXX",
"XXXXXXXXXXXXXXXXXXXXXX..XXXXXXXXXXXooXXXXXXXXXXX",
"XXXXXXXXXXXXXXXXXXXXXXXXXXXXXXXXXXooooXXXXXXXXXX",
"XXXXXXXXXXXXXXXXXXXXXXXXXXX..XXXXXXooXXXXXXXXXXX",
"XXXXXXXXXXXXXXXXXXXXXXXXXX....XXXXXXXXXXXXXXXXXX",
"XXXXXXXXXXXXXXXXXXXXXXXXXXX..XXXXXXXXXXXXXXooXXX",
"XXXXXXXXXXXXXXXXXXX..XXXXXXXXXXXXXXXXXXXXXooooXX",
"XXXXXXXXXXXXXXXXXX....XXXXXXXXXXXXXXXXXXXXXooXXX",
"XXXXXXXXXXXXXXXXXXX..XXXXXXXXXXXXXXXXXXXXXXXXXXX",
"XXXXXXXXXXXXXXXXXXXXXXXXXXXXXXXXXXXXXXXXXXXXXXXX",
"XXXXXXXXXXXXXXXXXXXXXXXXXXXXXXXXXXXXXXXXXXXXXXXX",
"XXXXXXXXXXXXXXXXXXXXXXXXXXXXXXXXXXXXXXXXXXXXXXXX",
"XXXXXXXXXXXXXXXXXXXXXXXXXXXXXXXXXXXXXXXXXXXXXXXX",
"XXXXXXXXXXXXXXXXXXXXXXXXXXXXXXXXXXXXXXXXXXXXXXXX",
"XXXXXXXXXXXXXXXXXXXXXXXXXXXXXXXXXXXXXXXXX...XXXX",
"XXXXXXXXXXXXXXXXXXXXXXXXXXXXXXXXXXXXXXXX.....XXX",
"XXXXXXXXXXXXXXXXXXXXXXXXXXXXXXXXXXXXXXXXX...XXXX",
"XXXXXXXXXXXXXXXXXXXXXXXXXXXXXXXXXXXXXXXXXXXXXXXX",
"XXXXXXXXXXXXXXXXXXXXXXXXooXXXXXXXXXXXX..XXXXXXXX",
"XXXXXXXXXXXXXXXXXXXXXXXooooXXXXXXXXXX....XXXXXXX",
"XXXXXXXXXXXXXXXXXXXXXXXXooXXXXXXXXXXXX..XXXXXXXX",
"XXX   XXXX   XXXXXXXXXXXXXXXXXXXXXXXXXXXXXXXXXXX",
"XXXXXX    XXXXXXXXXoooXXXXXXXXXXXXXXXXXXXXXXXXXX",
"XXXXXXXXXXXXXXXXXXoooooXXXXXXXXXXXXXXXXXXXXXXXXX",
"XXXXXXXXXXXXXXXXXXXoooXXXXXXXXXXXXXXXXXXXXXXXXXX",
"XXXXXXXXXXXXXXXXXXXXXXXXXXXXXXXXXXXXXXXXXXXXXXXX",
"XXXXXXXXXXXXXXXXXXXXXXXXXXXXXXXXXXXXXXXXXXXXXXXX"
};
