/* XPM */
static char *result[] = {
/* columns rows colors chars-per-pixel */
"18 18 11 1 ",
"  c #505E77",
". c #5F7A79",
"X c #8A4A70",
"o c #A35B70",
"O c #AF6776",
"+ c #BD757E",
"@ c #6E967C",
"# c #82A884",
"$ c #D99A9A",
"% c #F3F4E7",
"& c None",
/* pixels */
"&&&&&&&&&&&&&&&&&&",
"&&&&&&&&&&&&&&&&&&",
"&&&&&&&&&&&&%%%%&&",
"&&&&&&&&&%%%...%&&",
"%%%%&%%&%XXX#@.%&&",
"%...%XX%X+$+X@ %&&",
"%.#@X++XO++++X%&&&",
"%.@X++$+XO+$+X%%&&",
"&%X++++++XOOOX.%&&",
"&%XO+$+++XOOX@.%&&",
"&%XOO+++$XXXX@ %&&",
"&&%XXO+++XooX %&&&",
"&&&%%XXXXXooX%&&&&",
"&&&&&%%XoooX%&&&&&",
"&&&&&&%XXXX%&&&&&&",
"&&&&&&%%%%%&&&&&&&",
"&&&&&&&&&&&&&&&&&&",
"&&&&&&&&&&&&&&&&&&"
};
