/* XPM */
static char *b9f5646a07654b33d2833b60a68761bfqnAuSb7XRpuHWbIf[] = {
/* columns rows colors chars-per-pixel */
"20 20 13 1 ",
"  c #E8CFA6",
". c #754C60",
"X c #5F7A79",
"o c #8A4A70",
"O c #A35B70",
"+ c #AF6776",
"@ c #BD757E",
"# c #6E967C",
"$ c #82A884",
"% c #D99A9A",
"& c #F3F4E7",
"W c #C0D470",
"R c #EAE178",
/* pixels */
"WwWR RW  RR  R RWRWW",
"WWRRW      &&&&  RWW",
"WRRW    &&&&XXX&  RW",
"WW      &.&X$$X&  RW",
"WR    &&&.X##$X&  WW",
"WW   &OOO.XXXX&   WW",
"R   &O@@@OO++O&   WW",
"W  &O@%@@@++++O&   W",
"R  &O@@@%@++++o&  RW",
"W  &O@@@@@++++o&  RW",
"W  &o@@@@+++++o&  WR",
"R   &o+++++++o&   RW",
"WW   &o++o++o&   WRW",
"WWW   &oo&oo&   WRRW",
"WWRR   && &&   RWWWW",
"WWWRW         RWWWWW",
"WWWWWRWRWRWRWRWWWWWW",
"WWWWWWWWWRWWWWWWWWWW",
"WWWWWWWWWWWWWWWWWWWW",
"WWWWWWWWWWWWWWWWWWWW",
};
