/* XPM */
static char *result[] = {
/* columns rows colors chars-per-pixel */
"37 37 11 1 ",
"  c #211F30",
". c #CE8B16",
"X c #E1CA33",
"o c #1D3EB1",
"O c #2775CF",
"+ c #2FACDA",
"@ c #6CD9F1",
"# c #F7EC8A",
"$ c white",
"% c #C0D470",
"R c #EAE178",
/* pixels */
"%%%%%%%%%%%%%%%%%%%%%%%%%%%%%%%%%%%%%",
"%%%%%%RRR%%%%%%%%%%%%%%%%%%%%%%%%%%%%",
"%%%%%RRRR%%%%%%%%%%%%%%%%%%%%%%%%%%%%",
"%%%%%%RRR%%%%%%%%%%%%%%%RRRRRR%%%%%%%",
"%%%%%%%%%%%%%%%%%%%%%%%%%RRRRRRRR%%%%",
"%%%%%%%%%%%%%%%%%%%%%%%RRRRRR%%%%%%%%",
"%%%%%%%%%%%%%%%%%%%%%%%%%%%%%%%%%%%%%",
"%%%%%%%%%%%%%%%%%%%%%%%%%%%%%%%%%%%%%",
"%%%%%%%%%%%%        %%%%%%%%%%%%%%%%%",
"%%%%%%%%%%  @+++++++  %%%%%%%%%%%%%%%",
"%%%%%%%%% @+++++++++++ %%%%%%%%%%%%%%",
"%%%%  %% @++oooo+++++o$ %%%%%%%%%%%%%",
"%%% ++  @++o$$$$o++++o$ %%%%%%%%%%%%%",
"%%% +++o+++o$$$$              %%%%%%%",
"%%% O+++o++Oooo X############$  %%%%%",
"%%%% O++++++OO XX.........#####$ %%%%",
"%%%% O++++++++   #########..####$ %%%",
"%%%%% O+++++++ XXXXXXXXXX###.###$ %%%",
"%%%%%   ++++++O          XX##.###$ %%",
"%%%%% OO+++++++OOOOOOO %%  X#.###$ %%",
"%%%%% OO++++++++++++OO %%%% X#.##$ %%",
"%%%%%% O++++OO++++++O %%%%%% X XX %%%",
"%%%%%% OO+++OO+O++++O %%%%%%%  X %%%%",
"%%%%%%%  OOO++++++OO %%%%%%%%   %%%%%",
"%%%%%%% X   OOOOOO  %%%%%%%%%%%%%%%%%",
"%%%%%% #X %%      %%%%%%%%%%%%%%%%%%%",
"%%%%%%%  %% XX %%%%%%%%%%%%%%%%%%%%%%",
"%%%%%%%%%%%%  %%%%%%%%%%%%%%%%%%%%%%%",
"%%%%%%%%%%%%%%%%%%%%%%%%%%%%%%%%%%%%%",
"%%%%RRRR%%%%%%%%%%%%%%%%%%%%%%%%%%%%%",
"%%%RRRRRRR%%%%%%%%%%%%%%%%%%%%%%%%%%%",
"%%%%RRRRRRR%%%%%%%%%%%%%%%%%%%%%%%%%%",
"%%%%%%%%%%%%%%%%%%%%%%%RRRR%%%%%%%%%%",
"%%%%%%%%%%%%%%%%%%%%%%%RRRRRRRRRRR%%%",
"%%%%%%%%%%%%%%%%%%%%%%%%%%RRRRRRR%%%%",
"%%%%%%%%%%%%%%%%%%%%%%%%%%%%%%%%%%%%%",
"%%%%%%%%%%%%%%%%%%%%%%%%%%%%%%%%%%%%%"
};
