/* XPM */
static char *_7679ed29dbf44eda43d5c83d2a7f789ATlbMVDaAbcGUOlY[] = {
/* columns rows colors chars-per-pixel */
"49 32 4 1 ",
"  c #A4C263",
". c #C0D470",
"X c #D2E077",
"o c #EAE178",
/* pixels */
".................................................",
".................................................",
".......................     .....................",
"....    .............        ........oo..........",
"...       ..........         .......oooo.........",
"...        .........         ........oo....oo....",
"...        ..........       ..............oooo...",
"...        ................................oo....",
"....      .................   ...................",
"...................    ...     ..................",
"..........    ....      ..     ........oo........",
".........      ...      ...   ........oooo.......",
".........      ....    ................oo........",
"..........    ...................................",
".................................................",
".................................................",
".................................................",
".................................................",
".................................................",
"....XXXXX..............XXXXX.....................",
"...XXXXXXX............XXXXXXXX...................",
"...XXXXXXX............XXXXXXXXX.......oo.........",
"....XXXXX.............XXXXXXXXX......oooo........",
".......................XXXXXXX........oo.........",
"..........XXXX...................................",
"........XXXXXXX.....XXXX.........................",
"........XXXXXXX....XXXXXX................oo......",
"...XXX...XXXXX.....XXXXXX...............oooo.....",
"..XXXXX.............XXXX.................oo......",
"..XXXXX..........................................",
"...XXX...........................................",
"................................................."
};
