/* XPM */
static char *_c534736dd594a8d9ae362d9c7f87397O4YT6Gw3BX2K07bb[] = {
/* columns rows colors chars-per-pixel */
"32 32 7 1 ",
"  c None",
". c #754C60",
"X c #90625D",
"o c #AA7959",
"O c #B68962",
"+ c #C49A6C",
"@ c #DCB98A",
/* pixels */
" .............................. ",
".OO++++++++++++++++++++++++++OO.",
".O++++++++++++++++++++++++++++O.",
".++++++++++++++++++++++++++++++.",
".+++X@@@@@@@@@@@@@@@@@@@@@@X+++.",
".+++.oooooooooooooooooooooo.+++.",
".+++.oooooooooooooooooooooo.+++.",
".+++.XXXXXXXXXXXXXXXXXXXXXX.+++.",
".+++.oooooooooooooooooooooo.+++.",
".+++.oooooooooooooooooooooo.+++.",
".+++.oooooooooooooooooooooo.+++.",
".+++.XXXXXXXXXXXXXXXXXXXXXX.+++.",
".+++.oooooooooooooooooooooo.+++.",
".+++.oooooooooooooooooooooo.+++.",
".+++.oooooooooooooooooooooo.+++.",
".+++........................+++.",
".+++X......................X+++.",
".++++++++++++++++++++++++++++++.",
".O++++++++++++++++++++++++++++O.",
".OO++++++++++++++++++++++++++OO.",
".X@@@@@@@@@@@@@@@@@@@@@@@@@@@@X.",
".oooooooooooooooooooooooooooooo.",
".oooooooooooooooooooooooooooooo.",
".XXXXXXXXXXXXXXXXXXXXXXXXXXXXXX.",
".oooooooooooooooooooooooooooooo.",
".oooooooooooooooooooooooooooooo.",
".oooooooooooooooooooooooooooooo.",
".XXXXXXXXXXXXXXXXXXXXXXXXXXXXXX.",
".oooooooooooooooooooooooooooooo.",
".oooooooooooooooooooooooooooooo.",
".oooooooooooooooooooooooooooooo.",
"................................"
};
