/* XPM */
static char *result[] = {
/* columns rows colors chars-per-pixel */
"16 16 6 1 ",
"  c #754C60",
". c #90625D",
"X c #AA7959",
"o c #C49A6C",
"O c #DCB98A",
"+ c #C0D470",
/* pixels */
"  +  +++++++++  ",
"oo o ++++++++ oo",
"oo o ++++++++ oo",
"oo . ++++++++ oo",
"OO . ++++++++ OO",
"XX . ++++++++ XX",
"XX . ++++++++ XX",
".. . ++++++++ ..",
"XX . ++++++++ XX",
"XX . ++++++++ XX",
"XX . ++++++++ XX",
".. . ++++++++ ..",
"XX . ++++++++ XX",
"XX . ++++++++ XX",
"XX   ++++++++ XX",
"   ++++++++++   "
};
