/* XPM */
static char *result[] = {
/* columns rows colors chars-per-pixel */
"47 47 214 2 ",
"   c #754C60",
".  c #754C60",
"X  c #784F61",
"o  c #7C5261",
"O  c #7E5A6C",
"+  c #795A71",
"@  c #81565E",
"#  c #85595E",
"$  c #8A5E5E",
"%  c #8E615D",
"&  c #92655D",
"*  c #96685C",
"=  c #9C6D5B",
"-  c #A4745A",
";  c #A87759",
":  c #A7785D",
">  c #AA7A5A",
",  c #754C60",
"<  c #754C60",
"1  c #895E62",
"2  c #835D6B",
"3  c #825F71",
"4  c #8B6263",
"5  c #83606D",
"6  c #8C656B",
"7  c #8E696C",
"8  c #916662",
"9  c #946A65",
"0  c #9A6E65",
"q  c #946D6C",
"w  c #9E7366",
"e  c #96726E",
"r  c #9C746C",
"t  c #856372",
"y  c #8B6774",
"u  c #8D6B73",
"i  c #86697C",
"p  c #896D7B",
"a  c #916D71",
"s  c #8E747C",
"d  c #957172",
"f  c #9B7873",
"g  c #92747C",
"h  c #95797D",
"j  c #9A7B7C",
"k  c #754C60",
"l  c #A47A66",
"z  c #A97E67",
"x  c #A57C6A",
"c  c #A17C73",
"v  c #9B807E",
"b  c #AC8267",
"n  c #AC846B",
"m  c #B18567",
"M  c #B58967",
"N  c #B18769",
"B  c #B58B6A",
"V  c #B98E6A",
"C  c #BB916B",
"Z  c #A68174",
"A  c #AB8778",
"S  c #B48D73",
"D  c #BD977A",
"F  c #C1976C",
"G  c #C49A6D",
"H  c #C39B73",
"J  c #CBA375",
"K  c #CBA47B",
"L  c #CBA57C",
"P  c #7D6785",
"I  c #7F6A85",
"U  c #7C6D8F",
"Y  c #786A96",
"T  c #7468A2",
"R  c #7E75A8",
"E  c #836B82",
"W  c #826D8C",
"Q  c #877186",
"!  c #8B7385",
"~  c #867389",
"^  c #8B758A",
"/  c #8E7A8E",
"(  c #947483",
")  c #947A83",
"_  c #977B88",
"`  c #9A7D8B",
"'  c #827295",
"]  c #8E7A92",
"[  c #887799",
"{  c #967E97",
"}  c #937E9B",
"|  c #857BA7",
" . c #998387",
".. c #9B838C",
"X. c #978692",
"o. c #9B8493",
"O. c #9C8B93",
"+. c #95849C",
"@. c #99869B",
"#. c #9C8B9B",
"$. c #9E969F",
"%. c #A88988",
"&. c #B18E86",
"*. c #B79487",
"=. c #BE9B83",
"-. c #A58B97",
";. c #B18F9B",
":. c #A8949B",
">. c #B1AA99",
",. c #BAB39D",
"<. c #8C83A9",
"1. c #9485A3",
"2. c #978CA8",
"3. c #9D93A3",
"4. c #9D95AC",
"5. c #9E97B1",
"6. c #A18EA6",
"7. c #A193A3",
"8. c #AE96A1",
"9. c #AA9EA4",
"0. c #A395AB",
"q. c #B39BA4",
"w. c #B99CA5",
"e. c #A397B5",
"r. c #A79BB3",
"t. c #ACA2A6",
"y. c #ACA3AB",
"u. c #B5A2AA",
"i. c #BAA5AE",
"p. c #B2A9A8",
"a. c #BDA9AB",
"s. c #BDB6AD",
"d. c #ABA3B3",
"f. c #ADA8B3",
"g. c #B2ACB4",
"h. c #B9A9B5",
"j. c #BAB2B4",
"k. c #BBB4B8",
"l. c #C29F86",
"z. c #D3AE80",
"x. c #D6B284",
"c. c #CCAC90",
"v. c #D4B492",
"b. c #D9BB9B",
"n. c #C6A6A7",
"m. c #C6ADA7",
"M. c #D4AEAA",
"N. c #CCB2A6",
"B. c #C8B6AD",
"V. c #D1B7A5",
"C. c #DABBAD",
"Z. c #C1AEB5",
"A. c #C4BDB3",
"S. c #CABDB2",
"D. c #C6B7BA",
"F. c #C6B4BC",
"G. c #E4BBAF",
"H. c #D3CC95",
"J. c #E4DE96",
"K. c #EBE696",
"L. c #CFC9A8",
"P. c #DBC2AA",
"I. c #C6C1B3",
"U. c #CBC5B4",
"Y. c #CDC9B5",
"T. c #CAC5BA",
"R. c #CBC8B9",
"E. c #D2CCB6",
"W. c #DFC9B0",
"Q. c #D5CAB8",
"!. c #D6D2B7",
"~. c #DBD5BA",
"^. c #E1C5A3",
"/. c #E9C6B2",
"(. c #E3CCB4",
"). c #ECD4B6",
"_. c #E6D7BA",
"`. c #E3DDBC",
"'. c #EAE6A8",
"]. c #F0EDA9",
"[. c #E5E2BC",
"{. c #E9E6BE",
"}. c #EDEBBE",
"|. c #F0EEB5",
" X c #F0E5BB",
".X c #F2ECBE",
"XX c #F2F0BD",
"oX c #BDB3C2",
"OX c #BEB5CB",
"+X c #C7BBC4",
"@X c #CCC5C2",
"#X c #D4CAC9",
"$X c #DCD7C2",
"%X c #D8CCD1",
"&X c #D6CEDA",
"*X c #DBD2D5",
"=X c #DCD4D9",
"-X c #E1DCC7",
";X c #E3DCD6",
":X c #E0D7DB",
">X c #E2DADC",
",X c #E9E5C2",
"<X c #EEECC4",
"1X c #EAE6CA",
"2X c #E9E5CD",
"3X c #F0EEC3",
"4X c #F3F2C0",
"5X c #E7E1D2",
"6X c #C0D470",
"7X c #C0D470",
"8X c #C0D470",
"9X c #C0D470",
"0X c #C0D470",
"qX c #C0D470",
/* pixels */
"%Xi.i.i.h.+X6X9XqXqXqXqXqXqXqXqXqXqXqXqXqXqXqXqXqXqXqXqXqXqXqXqXqXqXqXqXqXqXqX0X7X%Xk.i.i.h.+X",
"u.X X X , ` F.7X0X0XqXqXqXqXqXqXqXqXqXqXqXqXqXqXqXqXqXqXqXqXqXqXqXqXqXqXqXqX0X9X%X;.t X . o ` ",
"a.1 < < 8 _ i.%X7X9X0XqXqXqXqXqXqXqXqXqXqXqXqXqXqXqXqXqXqXqXqXqXqXqXqXqXqX0X8X=XF.-.a < < 1 %.",
"B.l l k l c %.w.+X>X0XqXqXqXqXqXqXqXqXqXqXqXqXqXqXqXqXqXqXqXqXqXqXqXqXqX0X7X#Xi.;.A c k x x *.",
"C.V V V V n c ( ;.#X8X0XqX0X0X0X0X0X0X0X0X0X0X0X0X0X0X0X0X0X0X0X0X0X0X0X0X6Xi.` d x B V V V c.",
"W.G G G F N 9 2 ` +X8X9X7X=X=X=X=X=X=X*X*X=X=X=X=X=X*X=X=X=X=X*X=X=X6X8X9X=X8.y 4 z C G G H v.",
"W.G G G F N 0 2 ` +X7X7XF.w.8.8.8.8.8.8.8.8.8.8.8.8.8.8.8.8.8.8.8.8.Z.%X7X:X8.t 1 l C G G G v.",
"W.G G G F N 0 2 _ F.=X%X8.( y y y y y y y y y y y y y y y y y y y y -.F.6X%X8.t 4 l C G G G v.",
"W.G G G F N 0 2 ( q.+XZ.%.u 4 4 4 4 4 4 4 4 4 4 4 4 4 4 4 4 4 4 O % j >.F.Z.-.2 4 z C G G G v.",
"W.G G G F N 9 , 3 ( -.%.A x x l b l l l l l b l l l l z l l z l b b Z %.-.` y 2 4 l C G G G v.",
"/.G G G G B 9 , X 2 2 r b N V V B V V V V V C V V V V V V V V V V V b r q 3 O o 4 l C G G J v.",
"(.J J J H S r , , < 4 0 l m M M M M M M M M M M M M M M M M M M M N b w 8 1 o o 4 n H J J J b.",
"_.L L x.L H r , < 9 l l l l l l w l l w k k k k k k k l k k k l w l w b x w 4 , 7 A K L x.L ^.",
").x.x.x.c.H c 2 2 k N z l 0 e e e e e e e q 9 & * & & & 8 8 9 w e e Z Z A n q , 7 S z.x.x.x.^.",
"_.K K K H S r < < 0 z x c d h h ) h v h g d 9 8 8 8 8 8 4 9 q f h v  .%.A Z q , 8 Z H K J K V.",
"W.V V V V z 8 , , 8 k l d j ..-.O.X.X.X.Q p u u q q q q q d g  .O.O.O.O. .v u 2 1 w N V V C v.",
"G.> > > > - < @ , 1 q d s ..:.u.t.9.3.+.U ~ ^ ) ) ) ) ) )  . .O.:.p.t.:.O. .p O 4 * : > b > l.",
"V.> > ; ; = # @ @ 1 9 d ! @.a.S.A.A.s.y.+.[ +.+.@.@.@.@.#.#.9.p.A.S.B.s.t.O.E + O * ; > > > H ",
"V.> ; ; ; = $ @ X 1 q g W 1.M.(.(._.~.Y.g.r.e.e.e.e.e.e.r.d.s.L._.).(.C.m.-.I +   * - > > > =.",
"V.> ; ; ; = # . , 1 q ( W @.M.G./.).{.`.R.@XOXOXOXOXOXOX+X@X!.`.{.)./.G.n.o.P + < * - ; : > =.",
"N.- - = = * # @ , 1 d g W } n.G./.). X.X,X-X=X&X&X&X&X=X*X5X{.}. X).G.M.w.o.I + o & = = - - *.",
"n.* * * * % # @ X 1 q d Q { w.M./.)..X4X<X2X=X:X=X:X:X=X=X1X3XXX X).C.n.;.X.i + o % & * * * &.",
"n.& & & & % @ @ @ 1 6 d ( _ :.n.(. X.X4X<X2X>X>X>X=X=X>X;X1X4X4X.X_.P.w.-.( p O o % % & & 8 &.",
"N.= = = * % @ . @ 1 9 d s / } t.!..X.XXX<X2X5X5X=X>X;X5X5X1X<X4X.X`.U.8./ W s t < % & = = = *.",
"N.- - - - * $   @ < 9 d g Q [ 0.!.}.}.}.<X<X2X2X2X2X5X2X2X<X3X<X[.~.Y.$.U E p O < & = - - : =.",
"V.> > ; ; = $   X 1 9 d g W Y 3.E.[.!.!.<X4X<X<X<X<X<X<X3X3X,X`.!.!.I.$.U I p 5 # * - > : > =.",
"V.> ; > ; = $   , 1 9 d s ~ ' 3.Y.!.I.Y.{.4X4X4X4X4X4X4XXX}.[.E.I.U.I.3.U I p 5 1 * - > > > =.",
"V.> > > ; = %   X 1 8 d s ~ ' 2.Y.!.A.U.{.4X4X4X4X4X4X4X4X}.[.R.s.I.I.3.U I p 5 # & - > > > =.",
"b.> > > ; = %   , 1 9 d s ~ ' 3.Y.~.U.E.{.4X4X4X4X4X4X4X4X}.[.E.S.U.A.3.U I p 5 1 * - > > > l.",
"V.> ; > ; = %   X 1 8 d s ~ ' 3.R.[.~.`.{.4X4X4X4X4XXX4X4X3X{.[.~.~.S.3.U I p 5 1 * - > > > =.",
"V.; ; ; ; = %   o 1 8 q s Q ' 6.T._.`.`.,X{.{.{.{.{.{.{.,X[.[.[.`.Q.B.$.U i u O # * - > : > =.",
"N.; - ; - * $   o 1 8 8 q g ^ o.i.B.D.D.R.R.E.R.R.R.R.R.R.T.T.A.Z.i.t.:.^ p 5 O # & = - - : =.",
"N.= = = = & #     # % * 8 e j  .:.6.6.e.r.d.f.g.g.g.g.g.f.f.d.5.4.3.-.O.h 7 o     % * = = = *.",
"m.* * * & %       # % & 8 9 f c ..] [ | | <.2.3.p.p.f.5.<.<.R | ' ] ` j q 4 @     % & & * * &.",
"m.* * * * %       # % % & 8 w c j ~ Y T | | <.$.>.,.p.4.<.R R T Y W g e 8 %       % & * * * &.",
"N.= = = = & #     # % % % * w c  .] <.2.5.r.y.,.H.H.L.s.d.4.4.<.[ / h e % % @     % = = = - *.",
"N.; ; ; - = $   @ # $ & & 9 k c _ #.r.g.s.A.I.H.J.J.J.!.I.A.g.f.7.X.) a % $ @   @ & - - : : =.",
"V.> ; > ; = %   @ < $ % % 8 l j ] 2.oX#X~.`.[.'.K.K.'.'.[.$X$XR.g.3.Q y 4 $     # * - > > > =.",
"V.> ; > ; = %   X , $ & & 9 r h ] 2.@X-X<XXXXX|.].].].|.|.<X{.#XoX2.! 5 4 $ @   @ * - > > > =.",
"V.> ; > ; = %   @ # % % & 8 r c / 3.f.@X,X4XXXXX].|.|.|.XX<X$XR.r.+.( u % % @   # * - > > > =.",
"M.> > ; ; = # . X # % % & & 0 x j o.0.D.$X4X<X,X`.`.[.,X<X,X~.g.#./ d q % $ @   # * - > > > D ",
"b.> > ; ; = $ @ @ , % % % & 8 0 f _ } r.#X1X$X!.A.A.U.!.-X-XT.y.] i q 8 % $ @   # * - > > > =.",
"M.; - - - = # @ @ , $ % % % & 8 e g ] 2.D.#XT.j.t.9.y.k.T.@Xk.6.^ t 4 % % $     # * = ; : : =.",
"m.= = = = & @ @ . @ # $ $ $ 1 1 6 p ! +.r.f.r.#.X...o.7.d.r.0.o.! y 1 # $ ,       % * = = = *.",
"n.$ # $ @ @ @ . . . @ @ @ @ , , 2 t p / 1.1.} / i p Q ] 1.1.} ^ u 5 o o       . o @ # $ % 4 %.",
"u.      @ . . . . . . , . . . . X O 3 i ! / ! E + O t p ! / Q i O o o o X X . . . X X o X o _ ",
"F.( ( ( ( ( ( ( ( ( ( ( ( ( ( ( ( ( ` ` o.@.o.` _ ( ` X.X.o.X._ ) ( ) ( ( ( ( ( ( ( ( ( ( ( :."
};
